<?xml version="1.0" standalone="no"?><!DOCTYPE svg PUBLIC "-//W3C//DTD SVG 1.1//EN" "http://www.w3.org/Graphics/SVG/1.1/DTD/svg11.dtd"><svg class="icon" width="200px" height="200.00px" viewBox="0 0 1024 1024" version="1.1" xmlns="http://www.w3.org/2000/svg"><path fill="#d3d3d3" d="M292.333833 444.449775 251.586207 485.197401l207.064468 207.0005 501.957021-501.957021-40.683658-40.683658-461.209395 461.209395L292.333833 444.449775zM512.255872 965.341329c-249.987006 0-453.341329-203.354323-453.341329-453.341329s203.354323-453.341329 453.341329-453.341329c39.276362 0 74.842579 4.221889 110.728636 13.241379l47.464268-47.4003C612.685657 8.05997 560.67966 0 512.255872 0 229.901049 0 0.255872 229.709145 0.255872 512c0 282.354823 229.645177 512 512 512 274.230885 0 498.758621-216.595702 511.488256-487.756122l-58.786607 0C952.291854 775.036482 754.054973 965.341329 512.255872 965.341329z" /></svg>