<?xml version="1.0" standalone="no"?><!DOCTYPE svg PUBLIC "-//W3C//DTD SVG 1.1//EN" "http://www.w3.org/Graphics/SVG/1.1/DTD/svg11.dtd"><svg class="icon" width="200px" height="200.00px" viewBox="0 0 1024 1024" version="1.1" xmlns="http://www.w3.org/2000/svg"><path fill="#d3d3d3" d="M938.2 760.1L694.8 516.6C712.9 475.5 722 431 722 386.9c0-82.7-31.3-165.4-94.9-228.5C564.1 95.3 481.4 64 399 64c-82.7 0-165.4 31.3-228.8 94.4C107.1 221.1 76 304.3 76 387c0 82.7 31.1 165.4 94.2 228.5 63.4 62.6 146.1 94.4 228.8 94.4 31.8 0 64.1-4.9 94.4-14.2l254.5 254.5c6.4 6.4 15.2 9.8 24.5 9.8h141.4c19.1 0 34.2-15.2 34.2-34.8V784.3c0-8.8-2.9-17.6-9.8-24.2zM491.4 623.3l-1 0.5c-29.4 11.5-60.7 17.1-91.5 17.1-65.1 0-130.2-24.5-179.8-74.4-49.7-49.4-74.6-114.5-74.6-179.5 0-65.1 25-130.7 74.6-179.8 49.7-49.7 114.7-74.6 179.8-74.6 64.8 0 129.9 25 179.6 74.6 49.7 49.2 74.4 114.7 74.4 179.8 0 105.2-65 199.1-161.5 236.3zM786.5 891L561.9 666.1c12.7-7.6 25.4-16.4 37.2-25.7L849.6 891h-63.1z m93-28.9L629.9 612.5l2-1.5 1-1c9-10 18.1-20.6 25.9-31.6l220.7 220v63.7zM399 269c-64.6 0-118 53.4-118 118s53.3 117.4 117.9 117.4c64.8 0 117.4-52.8 117.4-117.4 0.1-64.6-52.7-118-117.3-118z m0 194.3c-42.1 0-76.3-34.2-76.3-76.3 0-42.6 34.2-76.3 76.3-76.3 41.8 0 76.3 33.8 76.3 76.3 0 42-34.3 76.3-76.3 76.3z" /></svg>