<?xml version="1.0" standalone="no"?><!DOCTYPE svg PUBLIC "-//W3C//DTD SVG 1.1//EN" "http://www.w3.org/Graphics/SVG/1.1/DTD/svg11.dtd"><svg class="icon" width="200px" height="200.00px" viewBox="0 0 1024 1024" version="1.1" xmlns="http://www.w3.org/2000/svg"><path fill="#ea8011" d="M777 817a40 40 0 0 1-40-40c0-270.19-219.81-490-490-490a40 40 0 0 1 0-80 569.56 569.56 0 0 1 570 570 40 40 0 0 1-40 40zM604.05 817a40 40 0 0 1-40-40c0-174.82-142.23-317.05-317.05-317.05a40 40 0 0 1 0-80A396.76 396.76 0 0 1 644.05 777a40 40 0 0 1-40 40zM436.68 817a40 40 0 0 1-40-40c0-82.54-67.15-149.68-149.68-149.68a40 40 0 0 1 0-80A229.69 229.69 0 0 1 476.68 777a40 40 0 0 1-40 40z" /></svg>